<svg viewBox="0 0 28 28" width="28" height="28" xmlns="http://www.w3.org/2000/svg">
	<path d="M23.447 22.74L21.017 15.57C20.701 14.653 19.91 14.061 19 14.061C18.09 14.061 17.307 14.654 16.982 15.57L14.553 22.74C14.376 23.263 14.656 23.831 15.179 24.009C15.703 24.187 16.269 23.905 16.447 23.383L16.916 22H21.084L21.553 23.383C21.695 23.799 22.083 24.062 22.5 24.062C22.606 24.062 22.715 24.045 22.821 24.009C23.344 23.831 23.625 23.263 23.447 22.74ZM17.593 20L18.874 16.221C18.949 16 19.051 16.004 19.124 16.217L20.406 20H17.593ZM15.495 15.286L9.075 25.743C8.643 26.393 8.018 26.743 7.376 26.743C7.117 26.743 6.855 26.686 6.603 26.569C5.678 26.141 5.23 25.048 5.539 23.969L6.743 18.743H2.913C1.833 18.743 0.849 18.15 0.343 17.196C-0.163 16.242 -0.1 15.093 0.506 14.2L6.924 4.743C7.531 3.831 8.517 3.51 9.397 3.918C10.322 4.346 10.77 5.439 10.461 6.518L9.256 11.743H13.089C14.168 11.743 15.152 12.336 15.658 13.29C16.163 14.243 16.1 15.392 15.495 16.286Z" stroke="currentColor" stroke-width="1.6" fill="none" />
</svg>
