<svg width="853" height="234" viewBox="0 0 853 234" fill="none" xmlns="http://www.w3.org/2000/svg">
<path d="M69.7998 121.275V139H23.4375V121.275H69.7998ZM30.1025 32.3594V139H8.64258V32.3594H30.1025ZM63.5742 75.5723V92.7842H23.4375V75.5723H63.5742ZM69.6533 32.3594V50.1572H23.4375V32.3594H69.6533ZM101.44 76.6709V139H80.8594V59.752H100.049L101.44 76.6709ZM98.3643 96.666L92.8711 96.8125C92.7734 90.8555 93.335 85.5088 94.5557 80.7725C95.8252 76.0361 97.6074 72.0078 99.9023 68.6875C102.246 65.3184 105.029 62.7549 108.252 60.9971C111.475 59.1904 115.112 58.2871 119.165 58.2871C122.241 58.2871 125.049 58.8242 127.588 59.8984C130.176 60.9727 132.397 62.6816 134.253 65.0254C136.108 67.3691 137.549 70.4697 138.574 74.3271C139.6 78.1846 140.112 82.9453 140.112 88.6094V139H119.531V88.4629C119.531 85.0449 119.189 82.4082 118.506 80.5527C117.822 78.6484 116.797 77.3301 115.43 76.5977C114.111 75.8164 112.402 75.4258 110.303 75.4258C108.35 75.4258 106.616 75.9629 105.103 77.0371C103.589 78.1113 102.319 79.625 101.294 81.5781C100.317 83.4824 99.5605 85.7285 99.0234 88.3164C98.5352 90.9043 98.3154 93.6875 98.3643 96.666ZM178.491 123.18L191.235 59.752H212.622L190.869 139H178.052L178.491 123.18ZM170.947 59.752L183.911 123.253L184.131 139H171.24L149.487 59.752H170.947ZM244.043 59.752V139H223.462V59.752H244.043ZM222.51 39.1709C222.51 35.9971 223.511 33.3848 225.513 31.334C227.563 29.2832 230.322 28.2578 233.789 28.2578C237.207 28.2578 239.917 29.2832 241.919 31.334C243.921 33.3848 244.922 35.9971 244.922 39.1709C244.922 42.3447 243.921 44.9814 241.919 47.0811C239.917 49.1318 237.207 50.1572 233.789 50.1572C230.322 50.1572 227.563 49.1318 225.513 47.0811C223.511 44.9814 222.51 42.3447 222.51 39.1709ZM280.811 77.4033V139H260.303V59.752H279.639L280.811 77.4033ZM299.487 59.166L299.194 79.6006C298.267 79.4053 297.144 79.2588 295.825 79.1611C294.556 79.0635 293.433 79.0146 292.456 79.0146C290.161 79.0146 288.208 79.3809 286.597 80.1133C284.985 80.7969 283.643 81.8467 282.568 83.2627C281.543 84.6299 280.762 86.3389 280.225 88.3896C279.688 90.4404 279.37 92.7598 279.272 95.3477L275.391 93.8828C275.391 88.707 275.781 83.9707 276.562 79.6738C277.393 75.3281 278.613 71.5684 280.225 68.3945C281.836 65.1719 283.765 62.6816 286.011 60.9238C288.306 59.166 290.894 58.2871 293.774 58.2871C294.751 58.2871 295.776 58.3848 296.851 58.5801C297.974 58.7266 298.853 58.9219 299.487 59.166Z" fill="#1E9500"/>
<path d="M386.569 77.4033V95.2012C386.569 102.721 385.642 109.312 383.786 114.977C381.979 120.592 379.392 125.304 376.022 129.112C372.702 132.872 368.674 135.704 363.938 137.608C359.25 139.513 354.05 140.465 348.337 140.465C342.624 140.465 337.399 139.513 332.663 137.608C327.976 135.704 323.923 132.872 320.505 129.112C317.136 125.304 314.523 120.592 312.668 114.977C310.812 109.312 309.885 102.721 309.885 95.2012V77.4033C309.885 69.6885 310.788 62.9502 312.595 57.1885C314.401 51.3779 317.014 46.5439 320.432 42.6865C323.85 38.7803 327.902 35.8506 332.59 33.8975C337.277 31.8955 342.478 30.8945 348.19 30.8945C353.903 30.8945 359.104 31.8955 363.791 33.8975C368.479 35.8506 372.531 38.7803 375.949 42.6865C379.367 46.5439 381.979 51.3779 383.786 57.1885C385.642 62.9502 386.569 69.6885 386.569 77.4033ZM365.256 95.2012V77.2568C365.256 72.1787 364.89 67.8574 364.157 64.293C363.425 60.6797 362.326 57.7256 360.861 55.4307C359.396 53.1357 357.614 51.4512 355.515 50.377C353.415 49.3027 350.974 48.7656 348.19 48.7656C345.407 48.7656 342.941 49.3027 340.793 50.377C338.693 51.4512 336.911 53.1357 335.446 55.4307C334.03 57.7256 332.956 60.6797 332.224 64.293C331.54 67.8574 331.198 72.1787 331.198 77.2568V95.2012C331.198 100.084 331.564 104.259 332.297 107.726C333.029 111.192 334.128 114.024 335.593 116.222C337.058 118.419 338.84 120.055 340.939 121.129C343.088 122.154 345.554 122.667 348.337 122.667C351.071 122.667 353.488 122.154 355.588 121.129C357.736 120.055 359.519 118.419 360.935 116.222C362.351 114.024 363.425 111.192 364.157 107.726C364.89 104.259 365.256 100.084 365.256 95.2012ZM421.652 74.9863V169.469H401.218V59.752H420.114L421.652 74.9863ZM462.814 96.666V101.939C462.814 108.141 462.277 113.634 461.203 118.419C460.129 123.155 458.518 127.184 456.369 130.504C454.27 133.775 451.633 136.266 448.459 137.975C445.285 139.635 441.574 140.465 437.326 140.465C433.371 140.465 429.953 139.537 427.072 137.682C424.24 135.777 421.848 133.165 419.895 129.845C417.941 126.524 416.379 122.643 415.207 118.199C414.035 113.756 413.132 108.995 412.497 103.917V95.7139C413.083 90.2939 413.938 85.3135 415.061 80.7725C416.184 76.1826 417.722 72.2031 419.675 68.834C421.677 65.4648 424.094 62.877 426.926 61.0703C429.807 59.2148 433.225 58.2871 437.18 58.2871C441.477 58.2871 445.212 59.0684 448.386 60.6309C451.608 62.1934 454.27 64.5615 456.369 67.7354C458.518 70.8604 460.129 74.8398 461.203 79.6738C462.277 84.5078 462.814 90.1719 462.814 96.666ZM442.233 101.939V96.666C442.233 92.8574 442.038 89.6104 441.647 86.9248C441.257 84.2393 440.622 82.042 439.743 80.333C438.864 78.624 437.717 77.3789 436.301 76.5977C434.885 75.8164 433.151 75.4258 431.101 75.4258C429.099 75.4258 427.341 75.8164 425.827 76.5977C424.362 77.3789 423.166 78.5264 422.238 80.04C421.311 81.5049 420.603 83.3115 420.114 85.46C419.626 87.5596 419.357 89.9521 419.309 92.6377V106.993C419.406 110.167 419.821 112.975 420.554 115.416C421.335 117.857 422.58 119.811 424.289 121.275C425.998 122.691 428.317 123.399 431.247 123.399C433.347 123.399 435.08 122.96 436.447 122.081C437.863 121.202 439.011 119.884 439.89 118.126C440.769 116.368 441.379 114.146 441.721 111.461C442.062 108.775 442.233 105.602 442.233 101.939ZM509.982 59.752V75.2061H469.553V59.752H509.982ZM478.854 40.1963H499.289V114.83C499.289 116.979 499.509 118.663 499.948 119.884C500.388 121.056 501.047 121.886 501.926 122.374C502.854 122.813 504.05 123.033 505.515 123.033C506.589 123.033 507.565 122.984 508.444 122.887C509.323 122.74 509.982 122.594 510.422 122.447V138.487C508.811 139.122 507.102 139.61 505.295 139.952C503.537 140.294 501.438 140.465 498.996 140.465C494.895 140.465 491.33 139.708 488.303 138.194C485.324 136.632 483.005 134.117 481.345 130.65C479.685 127.184 478.854 122.643 478.854 117.027V40.1963ZM542.941 59.752V139H522.36V59.752H542.941ZM521.408 39.1709C521.408 35.9971 522.409 33.3848 524.411 31.334C526.462 29.2832 529.221 28.2578 532.688 28.2578C536.105 28.2578 538.815 29.2832 540.817 31.334C542.819 33.3848 543.82 35.9971 543.82 39.1709C543.82 42.3447 542.819 44.9814 540.817 47.0811C538.815 49.1318 536.105 50.1572 532.688 50.1572C529.221 50.1572 526.462 49.1318 524.411 47.0811C522.409 44.9814 521.408 42.3447 521.408 39.1709ZM579.855 76.1582V139H559.274V59.752H578.537L579.855 76.1582ZM576.999 96.666L571.286 96.8125C571.188 91.2461 571.677 86.1191 572.751 81.4316C573.825 76.7441 575.437 72.667 577.585 69.2002C579.782 65.7334 582.541 63.0479 585.861 61.1436C589.23 59.2393 593.112 58.2871 597.507 58.2871C600.339 58.2871 602.976 58.8242 605.417 59.8984C607.907 60.9238 610.031 62.5596 611.789 64.8057C613.596 67.0029 614.987 69.8838 615.964 73.4482C616.94 76.9639 617.429 81.1875 617.429 86.1191V139H596.994V88.6094C596.994 85.0938 596.652 82.4082 595.969 80.5527C595.285 78.6484 594.309 77.3301 593.039 76.5977C591.77 75.8164 590.207 75.4258 588.352 75.4258C586.398 75.4258 584.689 75.9629 583.225 77.0371C581.76 78.1113 580.563 79.625 579.636 81.5781C578.757 83.4824 578.073 85.7285 577.585 88.3164C577.146 90.9043 576.95 93.6875 576.999 96.666ZM615.524 94.6152L608.2 95.5674C608.054 90.3428 608.493 85.46 609.519 80.9189C610.544 76.3779 612.131 72.4229 614.279 69.0537C616.428 65.6846 619.113 63.0479 622.336 61.1436C625.607 59.2393 629.392 58.2871 633.688 58.2871C636.911 58.2871 639.841 58.8242 642.478 59.8984C645.114 60.9727 647.36 62.7061 649.216 65.0986C651.12 67.4424 652.561 70.543 653.537 74.4004C654.562 78.209 655.075 82.8965 655.075 88.4629V139H634.494V88.5361C634.494 84.9717 634.152 82.2373 633.469 80.333C632.834 78.4287 631.882 77.1348 630.612 76.4512C629.343 75.7676 627.805 75.4258 625.998 75.4258C624.24 75.4258 622.702 75.9141 621.384 76.8906C620.114 77.8672 619.04 79.2344 618.161 80.9922C617.282 82.75 616.623 84.7764 616.184 87.0713C615.744 89.3662 615.524 91.8809 615.524 94.6152ZM708.835 119.957V59.752H729.416V139H710.08L708.835 119.957ZM711.179 103.624L716.892 103.478C716.892 108.8 716.379 113.731 715.354 118.272C714.328 122.765 712.79 126.671 710.739 129.991C708.737 133.312 706.174 135.899 703.049 137.755C699.973 139.562 696.335 140.465 692.136 140.465C688.913 140.465 685.935 139.928 683.2 138.854C680.515 137.73 678.195 135.997 676.242 133.653C674.289 131.261 672.751 128.209 671.628 124.498C670.554 120.738 670.017 116.246 670.017 111.021V59.752H690.598V111.168C690.598 113.316 690.769 115.172 691.11 116.734C691.501 118.248 692.038 119.493 692.722 120.47C693.454 121.446 694.284 122.154 695.212 122.594C696.14 122.984 697.189 123.18 698.361 123.18C701.584 123.18 704.123 122.35 705.979 120.689C707.883 118.98 709.226 116.661 710.007 113.731C710.788 110.753 711.179 107.384 711.179 103.624ZM779.514 117.613C779.514 116.246 779.05 115.025 778.122 113.951C777.194 112.877 775.729 111.778 773.728 110.655C771.726 109.483 769.064 108.189 765.744 106.773C762.131 105.309 758.933 103.795 756.149 102.232C753.366 100.67 750.998 98.9365 749.045 97.0322C747.141 95.1279 745.7 92.9551 744.724 90.5137C743.747 88.0723 743.259 85.2891 743.259 82.1641C743.259 78.7949 743.869 75.6943 745.09 72.8623C746.359 69.9814 748.166 67.4668 750.51 65.3184C752.854 63.1211 755.71 61.4121 759.079 60.1914C762.497 58.9219 766.33 58.2871 770.578 58.2871C776.535 58.2871 781.638 59.3369 785.886 61.4365C790.183 63.4873 793.479 66.3682 795.773 70.0791C798.068 73.79 799.216 78.1113 799.216 83.043H778.708C778.708 81.2852 778.439 79.7227 777.902 78.3555C777.365 76.9395 776.486 75.8408 775.266 75.0596C774.094 74.2783 772.507 73.8877 770.505 73.8877C769.04 73.8877 767.722 74.2051 766.55 74.8398C765.427 75.4746 764.523 76.3291 763.84 77.4033C763.205 78.4287 762.888 79.6494 762.888 81.0654C762.888 82.1396 763.107 83.0918 763.547 83.9219C764.035 84.752 764.792 85.5576 765.817 86.3389C766.843 87.1201 768.21 87.9502 769.919 88.8291C771.677 89.6592 773.825 90.5869 776.364 91.6123C781.638 93.5654 785.959 95.665 789.328 97.9111C792.746 100.157 795.285 102.794 796.945 105.821C798.605 108.8 799.436 112.486 799.436 116.881C799.436 120.396 798.752 123.595 797.385 126.476C796.066 129.356 794.138 131.847 791.599 133.946C789.06 136.046 786.008 137.657 782.443 138.78C778.928 139.903 774.997 140.465 770.651 140.465C764.255 140.465 758.859 139.195 754.465 136.656C750.07 134.117 746.75 130.87 744.504 126.915C742.258 122.911 741.135 118.761 741.135 114.464H760.617C760.715 117.101 761.203 119.176 762.082 120.689C763.01 122.154 764.255 123.18 765.817 123.766C767.38 124.352 769.113 124.645 771.018 124.645C772.922 124.645 774.484 124.4 775.705 123.912C776.975 123.375 777.927 122.569 778.562 121.495C779.196 120.372 779.514 119.078 779.514 117.613Z" fill="#004D95"/>
<path d="M26.3379 215.991V221H12.1426V215.991H26.3379ZM13.8721 188.297V221H7.85254V188.297H13.8721ZM24.4287 201.729V206.603H12.1426V201.729H24.4287ZM26.248 188.297V193.328H12.1426V188.297H26.248ZM35.7939 201.886V221H30.0215V196.697H35.4121L35.7939 201.886ZM34.8506 207.995L33.1885 208.018C33.1585 206.236 33.3307 204.626 33.7051 203.188C34.0944 201.736 34.6484 200.493 35.3672 199.46C36.0859 198.427 36.9469 197.633 37.9502 197.079C38.9535 196.525 40.0765 196.248 41.3193 196.248C42.2777 196.248 43.1462 196.413 43.9248 196.742C44.7184 197.072 45.3997 197.596 45.9688 198.314C46.5378 199.033 46.9795 199.977 47.2939 201.145C47.6084 202.312 47.7656 203.743 47.7656 205.435V221H41.9932V205.39C41.9932 204.297 41.8734 203.443 41.6338 202.829C41.4092 202.2 41.0723 201.758 40.623 201.504C40.1888 201.234 39.6273 201.1 38.9385 201.1C38.2946 201.1 37.7181 201.279 37.209 201.639C36.6999 201.983 36.2656 202.477 35.9062 203.121C35.5618 203.75 35.2998 204.484 35.1201 205.322C34.9404 206.146 34.8506 207.037 34.8506 207.995ZM59.6475 216.396L63.8477 196.697H69.8447L63.0391 221H59.4004L59.6475 216.396ZM56.9072 196.697L61.1973 216.44L61.3545 221H57.7158L50.8877 196.697H56.9072ZM79.1885 196.697V221H73.416V196.697H79.1885ZM73.124 190.363C73.124 189.45 73.4085 188.701 73.9775 188.117C74.5465 187.518 75.3252 187.219 76.3135 187.219C77.3018 187.219 78.0729 187.518 78.627 188.117C79.181 188.701 79.458 189.45 79.458 190.363C79.458 191.262 79.181 192.01 78.627 192.609C78.0729 193.193 77.3018 193.485 76.3135 193.485C75.3252 193.485 74.5465 193.193 73.9775 192.609C73.4085 192.01 73.124 191.262 73.124 190.363ZM90.2393 201.751V221H84.4893V196.697H89.9473L90.2393 201.751ZM96.0342 196.518L95.9893 202.245C95.6898 202.185 95.3529 202.14 94.9785 202.11C94.6191 202.08 94.2822 202.065 93.9678 202.065C93.264 202.065 92.6576 202.185 92.1484 202.425C91.6393 202.664 91.2126 203.009 90.8682 203.458C90.5238 203.907 90.2617 204.461 90.082 205.12C89.9023 205.764 89.79 206.498 89.7451 207.321L88.5771 207.119C88.5771 205.562 88.6969 204.124 88.9365 202.807C89.1911 201.489 89.5579 200.343 90.0371 199.37C90.5312 198.382 91.1377 197.618 91.8564 197.079C92.5752 196.525 93.3988 196.248 94.3271 196.248C94.6117 196.248 94.9186 196.278 95.248 196.338C95.5924 196.383 95.8545 196.443 96.0342 196.518ZM97.9658 209.747V207.973C97.9658 206.071 98.1979 204.394 98.6621 202.941C99.1263 201.474 99.7852 200.246 100.639 199.258C101.492 198.27 102.51 197.521 103.693 197.012C104.891 196.503 106.216 196.248 107.669 196.248C109.151 196.248 110.484 196.503 111.667 197.012C112.865 197.521 113.891 198.27 114.744 199.258C115.613 200.246 116.271 201.474 116.721 202.941C117.185 204.394 117.417 206.071 117.417 207.973V209.747C117.417 211.649 117.185 213.326 116.721 214.778C116.271 216.231 115.613 217.459 114.744 218.462C113.891 219.45 112.865 220.199 111.667 220.708C110.484 221.202 109.166 221.449 107.714 221.449C106.261 221.449 104.936 221.202 103.738 220.708C102.555 220.199 101.53 219.45 100.661 218.462C99.7926 217.459 99.1263 216.231 98.6621 214.778C98.1979 213.326 97.9658 211.649 97.9658 209.747ZM103.738 207.973V209.747C103.738 210.93 103.828 211.956 104.008 212.824C104.188 213.678 104.45 214.389 104.794 214.958C105.153 215.527 105.573 215.954 106.052 216.238C106.546 216.508 107.1 216.643 107.714 216.643C108.373 216.643 108.949 216.508 109.443 216.238C109.938 215.954 110.349 215.527 110.679 214.958C111.008 214.389 111.255 213.678 111.42 212.824C111.585 211.956 111.667 210.93 111.667 209.747V207.973C111.667 206.82 111.57 205.809 111.375 204.94C111.195 204.072 110.933 203.353 110.589 202.784C110.244 202.215 109.825 201.788 109.331 201.504C108.837 201.204 108.283 201.055 107.669 201.055C107.07 201.055 106.531 201.204 106.052 201.504C105.573 201.788 105.153 202.215 104.794 202.784C104.45 203.353 104.188 204.072 104.008 204.94C103.828 205.809 103.738 206.82 103.738 207.973ZM127.345 201.886V221H121.572V196.697H126.963L127.345 201.886ZM126.401 207.995L124.739 208.018C124.709 206.236 124.882 204.626 125.256 203.188C125.645 201.736 126.199 200.493 126.918 199.46C127.637 198.427 128.498 197.633 129.501 197.079C130.504 196.525 131.627 196.248 132.87 196.248C133.828 196.248 134.697 196.413 135.476 196.742C136.269 197.072 136.951 197.596 137.52 198.314C138.089 199.033 138.53 199.977 138.845 201.145C139.159 202.312 139.316 203.743 139.316 205.435V221H133.544V205.39C133.544 204.297 133.424 203.443 133.185 202.829C132.96 202.2 132.623 201.758 132.174 201.504C131.74 201.234 131.178 201.1 130.489 201.1C129.845 201.1 129.269 201.279 128.76 201.639C128.251 201.983 127.816 202.477 127.457 203.121C127.113 203.75 126.851 204.484 126.671 205.322C126.491 206.146 126.401 207.037 126.401 207.995ZM150.03 201.684V221H144.258V196.697H149.648L150.03 201.684ZM149.154 207.995L147.38 208.018C147.365 206.326 147.522 204.761 147.852 203.323C148.181 201.886 148.683 200.643 149.356 199.595C150.03 198.532 150.884 197.708 151.917 197.124C152.95 196.54 154.148 196.248 155.511 196.248C156.394 196.248 157.218 196.413 157.981 196.742C158.745 197.057 159.404 197.558 159.958 198.247C160.527 198.921 160.961 199.804 161.261 200.897C161.575 201.976 161.732 203.271 161.732 204.783V221H155.982V205.435C155.982 204.312 155.863 203.443 155.623 202.829C155.398 202.2 155.062 201.758 154.612 201.504C154.178 201.234 153.639 201.1 152.995 201.1C152.321 201.1 151.73 201.279 151.221 201.639C150.727 201.983 150.33 202.477 150.03 203.121C149.731 203.75 149.506 204.484 149.356 205.322C149.207 206.146 149.139 207.037 149.154 207.995ZM161.283 206.984L158.925 207.411C158.895 205.869 159.037 204.424 159.352 203.076C159.681 201.714 160.175 200.523 160.834 199.505C161.493 198.487 162.324 197.693 163.327 197.124C164.33 196.54 165.498 196.248 166.831 196.248C167.834 196.248 168.74 196.413 169.549 196.742C170.372 197.072 171.076 197.603 171.66 198.337C172.244 199.056 172.686 199.999 172.985 201.167C173.3 202.32 173.457 203.728 173.457 205.39V221H167.685V205.39C167.685 204.237 167.565 203.353 167.325 202.739C167.086 202.11 166.749 201.684 166.314 201.459C165.88 201.219 165.349 201.1 164.72 201.1C164.151 201.1 163.649 201.257 163.215 201.571C162.796 201.871 162.436 202.29 162.137 202.829C161.852 203.368 161.635 203.99 161.485 204.693C161.351 205.397 161.283 206.161 161.283 206.984ZM188.034 221.449C186.417 221.449 184.979 221.202 183.722 220.708C182.479 220.214 181.423 219.495 180.555 218.552C179.686 217.608 179.02 216.448 178.556 215.07C178.106 213.693 177.882 212.113 177.882 210.331V208.152C177.882 206.131 178.114 204.379 178.578 202.896C179.042 201.399 179.686 200.164 180.51 199.19C181.348 198.202 182.352 197.468 183.52 196.989C184.702 196.495 186.005 196.248 187.428 196.248C188.955 196.248 190.288 196.503 191.426 197.012C192.579 197.506 193.53 198.247 194.278 199.235C195.027 200.224 195.581 201.451 195.94 202.919C196.315 204.371 196.502 206.056 196.502 207.973V210.735H180.465V206.535H190.842V205.974C190.812 204.925 190.685 204.035 190.46 203.301C190.235 202.567 189.876 202.013 189.382 201.639C188.903 201.249 188.244 201.055 187.405 201.055C186.746 201.055 186.177 201.189 185.698 201.459C185.219 201.714 184.83 202.118 184.53 202.672C184.246 203.211 184.029 203.937 183.879 204.851C183.729 205.749 183.654 206.85 183.654 208.152V210.331C183.654 211.484 183.759 212.465 183.969 213.273C184.178 214.067 184.485 214.718 184.89 215.228C185.294 215.722 185.788 216.081 186.372 216.306C186.956 216.53 187.637 216.643 188.416 216.643C189.584 216.643 190.61 216.433 191.493 216.014C192.377 215.579 193.14 215.003 193.784 214.284L196.188 217.811C195.753 218.395 195.162 218.971 194.413 219.54C193.664 220.094 192.758 220.551 191.695 220.91C190.647 221.27 189.427 221.449 188.034 221.449ZM206.093 201.886V221H200.32V196.697H205.711L206.093 201.886ZM205.149 207.995L203.487 208.018C203.457 206.236 203.63 204.626 204.004 203.188C204.393 201.736 204.947 200.493 205.666 199.46C206.385 198.427 207.246 197.633 208.249 197.079C209.252 196.525 210.375 196.248 211.618 196.248C212.576 196.248 213.445 196.413 214.224 196.742C215.017 197.072 215.699 197.596 216.268 198.314C216.837 199.033 217.278 199.977 217.593 201.145C217.907 202.312 218.064 203.743 218.064 205.435V221H212.292V205.39C212.292 204.297 212.172 203.443 211.933 202.829C211.708 202.2 211.371 201.758 210.922 201.504C210.488 201.234 209.926 201.1 209.237 201.1C208.593 201.1 208.017 201.279 207.508 201.639C206.999 201.983 206.564 202.477 206.205 203.121C205.861 203.75 205.599 204.484 205.419 205.322C205.239 206.146 205.149 207.037 205.149 207.995ZM233.181 196.697V201.077H221.029V196.697H233.181ZM224.084 190.723H229.812V213.902C229.812 214.606 229.886 215.153 230.036 215.542C230.186 215.916 230.403 216.171 230.688 216.306C230.987 216.44 231.346 216.508 231.766 216.508C232.08 216.508 232.38 216.485 232.664 216.44C232.949 216.396 233.158 216.351 233.293 216.306L233.271 220.888C232.836 221.052 232.357 221.187 231.833 221.292C231.309 221.397 230.68 221.449 229.946 221.449C228.778 221.449 227.753 221.225 226.869 220.775C226.001 220.311 225.319 219.562 224.825 218.529C224.331 217.481 224.084 216.111 224.084 214.419V190.723ZM252.295 203.368L257.304 199.438C258.097 198.809 258.614 198.202 258.854 197.618C259.093 197.034 259.213 196.353 259.213 195.574C259.213 194.855 258.996 194.189 258.562 193.575C258.142 192.946 257.558 192.632 256.81 192.632C256.271 192.632 255.821 192.797 255.462 193.126C255.118 193.455 254.855 193.89 254.676 194.429C254.511 194.953 254.429 195.537 254.429 196.181C254.429 196.854 254.578 197.543 254.878 198.247C255.192 198.936 255.604 199.67 256.113 200.448C256.637 201.212 257.214 202.035 257.843 202.919L270.646 221H264.064L253.8 206.355C252.901 205.038 252.1 203.832 251.396 202.739C250.708 201.631 250.161 200.561 249.757 199.527C249.368 198.479 249.173 197.401 249.173 196.293C249.173 194.571 249.487 193.081 250.116 191.823C250.76 190.55 251.651 189.57 252.789 188.881C253.942 188.177 255.29 187.825 256.832 187.825C258.285 187.825 259.55 188.17 260.628 188.858C261.721 189.547 262.56 190.453 263.144 191.576C263.743 192.699 264.042 193.935 264.042 195.282C264.042 196.315 263.892 197.259 263.593 198.112C263.293 198.966 262.867 199.752 262.312 200.471C261.773 201.189 261.115 201.863 260.336 202.492L254.182 207.546C253.762 208.1 253.44 208.639 253.216 209.163C253.006 209.687 252.864 210.181 252.789 210.646C252.714 211.095 252.677 211.514 252.677 211.903C252.677 212.802 252.826 213.61 253.126 214.329C253.44 215.048 253.86 215.617 254.384 216.036C254.923 216.44 255.552 216.643 256.271 216.643C257.244 216.643 258.187 216.373 259.101 215.834C260.014 215.28 260.838 214.494 261.571 213.476C262.32 212.457 262.911 211.244 263.346 209.837C263.78 208.429 263.997 206.88 263.997 205.188H268.916C268.916 206.82 268.781 208.377 268.512 209.859C268.242 211.342 267.793 212.712 267.164 213.97C266.535 215.213 265.704 216.328 264.671 217.316C264.581 217.391 264.461 217.511 264.312 217.676C264.177 217.826 264.064 217.945 263.975 218.035C262.837 219.188 261.601 220.049 260.269 220.618C258.936 221.187 257.521 221.472 256.023 221.472C254.152 221.472 252.535 221.075 251.172 220.281C249.809 219.488 248.754 218.395 248.005 217.002C247.271 215.594 246.904 213.992 246.904 212.195C246.904 210.863 247.129 209.702 247.578 208.714C248.042 207.711 248.679 206.79 249.487 205.951C250.296 205.098 251.232 204.237 252.295 203.368ZM303.281 215.991V221H289.086V215.991H303.281ZM290.815 188.297V221H284.796V188.297H290.815ZM301.372 201.729V206.603H289.086V201.729H301.372ZM303.191 188.297V193.328H289.086V188.297H303.191ZM312.737 201.886V221H306.965V196.697H312.355L312.737 201.886ZM311.794 207.995L310.132 208.018C310.102 206.236 310.274 204.626 310.648 203.188C311.038 201.736 311.592 200.493 312.311 199.46C313.029 198.427 313.89 197.633 314.894 197.079C315.897 196.525 317.02 196.248 318.263 196.248C319.221 196.248 320.09 196.413 320.868 196.742C321.662 197.072 322.343 197.596 322.912 198.314C323.481 199.033 323.923 199.977 324.237 201.145C324.552 202.312 324.709 203.743 324.709 205.435V221H318.937V205.39C318.937 204.297 318.817 203.443 318.577 202.829C318.353 202.2 318.016 201.758 317.566 201.504C317.132 201.234 316.571 201.1 315.882 201.1C315.238 201.1 314.661 201.279 314.152 201.639C313.643 201.983 313.209 202.477 312.85 203.121C312.505 203.75 312.243 204.484 312.063 205.322C311.884 206.146 311.794 207.037 311.794 207.995ZM339.151 221.449C337.534 221.449 336.097 221.202 334.839 220.708C333.596 220.214 332.54 219.495 331.672 218.552C330.803 217.608 330.137 216.448 329.673 215.07C329.224 213.693 328.999 212.113 328.999 210.331V208.152C328.999 206.131 329.231 204.379 329.695 202.896C330.16 201.399 330.803 200.164 331.627 199.19C332.465 198.202 333.469 197.468 334.637 196.989C335.82 196.495 337.122 196.248 338.545 196.248C340.072 196.248 341.405 196.503 342.543 197.012C343.696 197.506 344.647 198.247 345.396 199.235C346.144 200.224 346.698 201.451 347.058 202.919C347.432 204.371 347.619 206.056 347.619 207.973V210.735H331.582V206.535H341.959V205.974C341.929 204.925 341.802 204.035 341.577 203.301C341.353 202.567 340.993 202.013 340.499 201.639C340.02 201.249 339.361 201.055 338.522 201.055C337.864 201.055 337.295 201.189 336.815 201.459C336.336 201.714 335.947 202.118 335.647 202.672C335.363 203.211 335.146 203.937 334.996 204.851C334.846 205.749 334.771 206.85 334.771 208.152V210.331C334.771 211.484 334.876 212.465 335.086 213.273C335.296 214.067 335.603 214.718 336.007 215.228C336.411 215.722 336.905 216.081 337.489 216.306C338.073 216.53 338.755 216.643 339.533 216.643C340.701 216.643 341.727 216.433 342.61 216.014C343.494 215.579 344.257 215.003 344.901 214.284L347.305 217.811C346.87 218.395 346.279 218.971 345.53 219.54C344.782 220.094 343.876 220.551 342.812 220.91C341.764 221.27 340.544 221.449 339.151 221.449ZM357.3 201.751V221H351.55V196.697H357.008L357.3 201.751ZM363.095 196.518L363.05 202.245C362.75 202.185 362.413 202.14 362.039 202.11C361.68 202.08 361.343 202.065 361.028 202.065C360.325 202.065 359.718 202.185 359.209 202.425C358.7 202.664 358.273 203.009 357.929 203.458C357.584 203.907 357.322 204.461 357.143 205.12C356.963 205.764 356.851 206.498 356.806 207.321L355.638 207.119C355.638 205.562 355.757 204.124 355.997 202.807C356.252 201.489 356.618 200.343 357.098 199.37C357.592 198.382 358.198 197.618 358.917 197.079C359.636 196.525 360.459 196.248 361.388 196.248C361.672 196.248 361.979 196.278 362.309 196.338C362.653 196.383 362.915 196.443 363.095 196.518ZM378.907 196.697H384.141V221.045C384.141 223.246 383.729 225.05 382.905 226.458C382.082 227.866 380.936 228.899 379.469 229.558C378.016 230.231 376.317 230.568 374.37 230.568C373.636 230.568 372.798 230.464 371.854 230.254C370.911 230.044 369.99 229.722 369.092 229.288C368.208 228.854 367.475 228.33 366.891 227.716L368.912 223.718C369.556 224.362 370.35 224.886 371.293 225.29C372.251 225.694 373.18 225.896 374.078 225.896C374.992 225.896 375.763 225.747 376.392 225.447C377.035 225.148 377.522 224.646 377.852 223.942C378.181 223.254 378.346 222.31 378.346 221.112V202.268L378.907 196.697ZM365.273 209.77V208.018C365.273 206.026 365.453 204.297 365.812 202.829C366.187 201.347 366.726 200.119 367.43 199.146C368.148 198.172 369.017 197.446 370.035 196.967C371.053 196.488 372.199 196.248 373.472 196.248C374.789 196.248 375.897 196.533 376.796 197.102C377.694 197.656 378.428 198.442 378.997 199.46C379.566 200.478 380.008 201.691 380.322 203.099C380.637 204.491 380.876 206.026 381.041 207.703V210.219C380.891 211.821 380.629 213.311 380.255 214.688C379.896 216.066 379.409 217.257 378.795 218.26C378.196 219.263 377.455 220.049 376.571 220.618C375.703 221.172 374.655 221.449 373.427 221.449C372.169 221.449 371.031 221.202 370.013 220.708C369.009 220.199 368.148 219.458 367.43 218.484C366.726 217.496 366.187 216.276 365.812 214.823C365.453 213.356 365.273 211.671 365.273 209.77ZM371.046 208.018V209.77C371.046 210.952 371.121 211.978 371.271 212.847C371.435 213.7 371.675 214.404 371.989 214.958C372.319 215.497 372.738 215.901 373.247 216.171C373.756 216.425 374.363 216.553 375.066 216.553C376.025 216.553 376.796 216.328 377.38 215.879C377.964 215.43 378.406 214.816 378.705 214.037C379.005 213.243 379.199 212.345 379.289 211.342V206.603C379.229 205.794 379.102 205.053 378.907 204.379C378.728 203.705 378.465 203.129 378.121 202.649C377.792 202.155 377.372 201.773 376.863 201.504C376.369 201.234 375.785 201.1 375.111 201.1C374.423 201.1 373.816 201.242 373.292 201.526C372.783 201.796 372.364 202.208 372.034 202.762C371.705 203.316 371.458 204.035 371.293 204.918C371.128 205.786 371.046 206.82 371.046 208.018ZM395.102 218.282L400.245 196.697H406.265L398.269 224.661C398.089 225.275 397.842 225.934 397.527 226.638C397.213 227.341 396.801 228.008 396.292 228.637C395.783 229.281 395.146 229.805 394.383 230.209C393.619 230.613 392.706 230.815 391.643 230.815C391.163 230.815 390.744 230.778 390.385 230.703C390.025 230.628 389.629 230.531 389.194 230.411L389.172 225.852C389.307 225.867 389.441 225.874 389.576 225.874C389.711 225.889 389.838 225.896 389.958 225.896C390.677 225.896 391.261 225.792 391.71 225.582C392.174 225.387 392.549 225.073 392.833 224.639C393.118 224.219 393.365 223.665 393.574 222.977L395.102 218.282ZM393.305 196.697L397.303 214.464L398.201 220.933L394.271 221.606L387.105 196.697H393.305ZM422.369 188.297H427.737L434.857 211.656L441.91 188.297H446.784L437.081 221H432.589L422.369 188.297ZM420.28 188.297H425.334L426.12 209.5V221H420.28V188.297ZM444.313 188.297H449.39V221H443.55V209.5L444.313 188.297ZM465.764 215.744V204.064C465.764 203.271 465.659 202.642 465.449 202.178C465.255 201.714 464.963 201.377 464.573 201.167C464.184 200.942 463.705 200.83 463.136 200.83C462.522 200.83 462.005 200.957 461.586 201.212C461.167 201.451 460.852 201.803 460.643 202.268C460.448 202.717 460.351 203.248 460.351 203.862H454.578C454.578 202.844 454.78 201.878 455.185 200.965C455.589 200.051 456.173 199.243 456.937 198.539C457.7 197.82 458.621 197.259 459.699 196.854C460.777 196.45 461.983 196.248 463.315 196.248C464.903 196.248 466.31 196.518 467.538 197.057C468.781 197.581 469.754 198.427 470.458 199.595C471.177 200.748 471.536 202.26 471.536 204.132V215.228C471.536 216.47 471.604 217.526 471.738 218.395C471.888 219.263 472.105 220.004 472.39 220.618V221H466.55C466.295 220.371 466.101 219.577 465.966 218.619C465.831 217.646 465.764 216.688 465.764 215.744ZM466.505 206.176L466.527 209.77H464.102C463.428 209.77 462.829 209.867 462.305 210.062C461.796 210.256 461.361 210.533 461.002 210.893C460.643 211.252 460.373 211.679 460.193 212.173C460.014 212.667 459.924 213.206 459.924 213.79C459.924 214.464 460.021 215.025 460.216 215.475C460.41 215.909 460.695 216.238 461.069 216.463C461.444 216.673 461.9 216.777 462.439 216.777C463.203 216.777 463.862 216.613 464.416 216.283C464.985 215.954 465.412 215.564 465.696 215.115C465.996 214.651 466.108 214.217 466.033 213.812L467.336 216.148C467.186 216.702 466.954 217.286 466.64 217.9C466.325 218.514 465.921 219.091 465.427 219.63C464.948 220.169 464.356 220.611 463.652 220.955C462.964 221.285 462.147 221.449 461.204 221.449C459.871 221.449 458.666 221.157 457.588 220.573C456.525 219.989 455.686 219.166 455.072 218.103C454.458 217.024 454.151 215.737 454.151 214.239C454.151 213.011 454.354 211.903 454.758 210.915C455.162 209.927 455.754 209.081 456.532 208.377C457.326 207.673 458.329 207.134 459.542 206.76C460.755 206.37 462.177 206.176 463.81 206.176H466.505ZM482.228 201.886V221H476.455V196.697H481.846L482.228 201.886ZM481.284 207.995L479.622 208.018C479.592 206.236 479.764 204.626 480.139 203.188C480.528 201.736 481.082 200.493 481.801 199.46C482.52 198.427 483.381 197.633 484.384 197.079C485.387 196.525 486.51 196.248 487.753 196.248C488.711 196.248 489.58 196.413 490.358 196.742C491.152 197.072 491.833 197.596 492.402 198.314C492.971 199.033 493.413 199.977 493.728 201.145C494.042 202.312 494.199 203.743 494.199 205.435V221H488.427V205.39C488.427 204.297 488.307 203.443 488.067 202.829C487.843 202.2 487.506 201.758 487.057 201.504C486.622 201.234 486.061 201.1 485.372 201.1C484.728 201.1 484.152 201.279 483.643 201.639C483.133 201.983 482.699 202.477 482.34 203.121C481.995 203.75 481.733 204.484 481.554 205.322C481.374 206.146 481.284 207.037 481.284 207.995ZM510.102 215.744V204.064C510.102 203.271 509.997 202.642 509.787 202.178C509.592 201.714 509.3 201.377 508.911 201.167C508.522 200.942 508.043 200.83 507.474 200.83C506.86 200.83 506.343 200.957 505.924 201.212C505.505 201.451 505.19 201.803 504.98 202.268C504.786 202.717 504.688 203.248 504.688 203.862H498.916C498.916 202.844 499.118 201.878 499.522 200.965C499.927 200.051 500.511 199.243 501.274 198.539C502.038 197.82 502.959 197.259 504.037 196.854C505.115 196.45 506.321 196.248 507.653 196.248C509.241 196.248 510.648 196.518 511.876 197.057C513.119 197.581 514.092 198.427 514.796 199.595C515.515 200.748 515.874 202.26 515.874 204.132V215.228C515.874 216.47 515.941 217.526 516.076 218.395C516.226 219.263 516.443 220.004 516.728 220.618V221H510.888C510.633 220.371 510.438 219.577 510.304 218.619C510.169 217.646 510.102 216.688 510.102 215.744ZM510.843 206.176L510.865 209.77H508.439C507.766 209.77 507.167 209.867 506.643 210.062C506.133 210.256 505.699 210.533 505.34 210.893C504.98 211.252 504.711 211.679 504.531 212.173C504.352 212.667 504.262 213.206 504.262 213.79C504.262 214.464 504.359 215.025 504.554 215.475C504.748 215.909 505.033 216.238 505.407 216.463C505.782 216.673 506.238 216.777 506.777 216.777C507.541 216.777 508.2 216.613 508.754 216.283C509.323 215.954 509.75 215.564 510.034 215.115C510.334 214.651 510.446 214.217 510.371 213.812L511.674 216.148C511.524 216.702 511.292 217.286 510.978 217.9C510.663 218.514 510.259 219.091 509.765 219.63C509.285 220.169 508.694 220.611 507.99 220.955C507.301 221.285 506.485 221.449 505.542 221.449C504.209 221.449 503.004 221.157 501.926 220.573C500.863 219.989 500.024 219.166 499.41 218.103C498.796 217.024 498.489 215.737 498.489 214.239C498.489 213.011 498.691 211.903 499.096 210.915C499.5 209.927 500.091 209.081 500.87 208.377C501.664 207.673 502.667 207.134 503.88 206.76C505.093 206.37 506.515 206.176 508.147 206.176H510.843ZM533.753 196.697H538.986V221.045C538.986 223.246 538.575 225.05 537.751 226.458C536.927 227.866 535.782 228.899 534.314 229.558C532.862 230.231 531.162 230.568 529.216 230.568C528.482 230.568 527.644 230.464 526.7 230.254C525.757 230.044 524.836 229.722 523.938 229.288C523.054 228.854 522.32 228.33 521.736 227.716L523.758 223.718C524.402 224.362 525.195 224.886 526.139 225.29C527.097 225.694 528.025 225.896 528.924 225.896C529.837 225.896 530.608 225.747 531.237 225.447C531.881 225.148 532.368 224.646 532.697 223.942C533.027 223.254 533.191 222.31 533.191 221.112V202.268L533.753 196.697ZM520.119 209.77V208.018C520.119 206.026 520.299 204.297 520.658 202.829C521.033 201.347 521.572 200.119 522.275 199.146C522.994 198.172 523.863 197.446 524.881 196.967C525.899 196.488 527.045 196.248 528.317 196.248C529.635 196.248 530.743 196.533 531.642 197.102C532.54 197.656 533.274 198.442 533.843 199.46C534.412 200.478 534.854 201.691 535.168 203.099C535.482 204.491 535.722 206.026 535.887 207.703V210.219C535.737 211.821 535.475 213.311 535.101 214.688C534.741 216.066 534.255 217.257 533.641 218.26C533.042 219.263 532.3 220.049 531.417 220.618C530.549 221.172 529.5 221.449 528.272 221.449C527.015 221.449 525.877 221.202 524.858 220.708C523.855 220.199 522.994 219.458 522.275 218.484C521.572 217.496 521.033 216.276 520.658 214.823C520.299 213.356 520.119 211.671 520.119 209.77ZM525.892 208.018V209.77C525.892 210.952 525.966 211.978 526.116 212.847C526.281 213.7 526.521 214.404 526.835 214.958C527.164 215.497 527.584 215.901 528.093 216.171C528.602 216.425 529.208 216.553 529.912 216.553C530.87 216.553 531.642 216.328 532.226 215.879C532.81 215.43 533.251 214.816 533.551 214.037C533.85 213.243 534.045 212.345 534.135 211.342V206.603C534.075 205.794 533.948 205.053 533.753 204.379C533.573 203.705 533.311 203.129 532.967 202.649C532.637 202.155 532.218 201.773 531.709 201.504C531.215 201.234 530.631 201.1 529.957 201.1C529.268 201.1 528.662 201.242 528.138 201.526C527.629 201.796 527.209 202.208 526.88 202.762C526.55 203.316 526.303 204.035 526.139 204.918C525.974 205.786 525.892 206.82 525.892 208.018ZM553.474 221.449C551.856 221.449 550.419 221.202 549.161 220.708C547.918 220.214 546.863 219.495 545.994 218.552C545.126 217.608 544.459 216.448 543.995 215.07C543.546 213.693 543.321 212.113 543.321 210.331V208.152C543.321 206.131 543.553 204.379 544.018 202.896C544.482 201.399 545.126 200.164 545.949 199.19C546.788 198.202 547.791 197.468 548.959 196.989C550.142 196.495 551.445 196.248 552.867 196.248C554.395 196.248 555.727 196.503 556.865 197.012C558.018 197.506 558.969 198.247 559.718 199.235C560.466 200.224 561.021 201.451 561.38 202.919C561.754 204.371 561.941 206.056 561.941 207.973V210.735H545.904V206.535H556.281V205.974C556.251 204.925 556.124 204.035 555.899 203.301C555.675 202.567 555.315 202.013 554.821 201.639C554.342 201.249 553.683 201.055 552.845 201.055C552.186 201.055 551.617 201.189 551.138 201.459C550.659 201.714 550.269 202.118 549.97 202.672C549.685 203.211 549.468 203.937 549.318 204.851C549.169 205.749 549.094 206.85 549.094 208.152V210.331C549.094 211.484 549.199 212.465 549.408 213.273C549.618 214.067 549.925 214.718 550.329 215.228C550.733 215.722 551.228 216.081 551.812 216.306C552.396 216.53 553.077 216.643 553.855 216.643C555.023 216.643 556.049 216.433 556.933 216.014C557.816 215.579 558.58 215.003 559.224 214.284L561.627 217.811C561.193 218.395 560.601 218.971 559.853 219.54C559.104 220.094 558.198 220.551 557.135 220.91C556.087 221.27 554.866 221.449 553.474 221.449ZM571.667 201.684V221H565.895V196.697H571.285L571.667 201.684ZM570.791 207.995L569.017 208.018C569.002 206.326 569.159 204.761 569.488 203.323C569.818 201.886 570.319 200.643 570.993 199.595C571.667 198.532 572.521 197.708 573.554 197.124C574.587 196.54 575.785 196.248 577.147 196.248C578.031 196.248 578.854 196.413 579.618 196.742C580.382 197.057 581.041 197.558 581.595 198.247C582.164 198.921 582.598 199.804 582.897 200.897C583.212 201.976 583.369 203.271 583.369 204.783V221H577.619V205.435C577.619 204.312 577.499 203.443 577.26 202.829C577.035 202.2 576.698 201.758 576.249 201.504C575.815 201.234 575.276 201.1 574.632 201.1C573.958 201.1 573.367 201.279 572.857 201.639C572.363 201.983 571.966 202.477 571.667 203.121C571.368 203.75 571.143 204.484 570.993 205.322C570.843 206.146 570.776 207.037 570.791 207.995ZM582.92 206.984L580.562 207.411C580.532 205.869 580.674 204.424 580.988 203.076C581.318 201.714 581.812 200.523 582.471 199.505C583.13 198.487 583.961 197.693 584.964 197.124C585.967 196.54 587.135 196.248 588.468 196.248C589.471 196.248 590.377 196.413 591.186 196.742C592.009 197.072 592.713 197.603 593.297 198.337C593.881 199.056 594.323 199.999 594.622 201.167C594.937 202.32 595.094 203.728 595.094 205.39V221H589.321V205.39C589.321 204.237 589.201 203.353 588.962 202.739C588.722 202.11 588.385 201.684 587.951 201.459C587.517 201.219 586.985 201.1 586.356 201.1C585.787 201.1 585.286 201.257 584.852 201.571C584.432 201.871 584.073 202.29 583.773 202.829C583.489 203.368 583.272 203.99 583.122 204.693C582.987 205.397 582.92 206.161 582.92 206.984ZM609.671 221.449C608.054 221.449 606.616 221.202 605.358 220.708C604.116 220.214 603.06 219.495 602.191 218.552C601.323 217.608 600.657 216.448 600.192 215.07C599.743 213.693 599.519 212.113 599.519 210.331V208.152C599.519 206.131 599.751 204.379 600.215 202.896C600.679 201.399 601.323 200.164 602.146 199.19C602.985 198.202 603.988 197.468 605.156 196.989C606.339 196.495 607.642 196.248 609.064 196.248C610.592 196.248 611.924 196.503 613.062 197.012C614.215 197.506 615.166 198.247 615.915 199.235C616.664 200.224 617.218 201.451 617.577 202.919C617.951 204.371 618.139 206.056 618.139 207.973V210.735H602.102V206.535H612.479V205.974C612.449 204.925 612.321 204.035 612.097 203.301C611.872 202.567 611.513 202.013 611.019 201.639C610.539 201.249 609.881 201.055 609.042 201.055C608.383 201.055 607.814 201.189 607.335 201.459C606.856 201.714 606.466 202.118 606.167 202.672C605.882 203.211 605.665 203.937 605.516 204.851C605.366 205.749 605.291 206.85 605.291 208.152V210.331C605.291 211.484 605.396 212.465 605.605 213.273C605.815 214.067 606.122 214.718 606.526 215.228C606.931 215.722 607.425 216.081 608.009 216.306C608.593 216.53 609.274 216.643 610.053 216.643C611.221 216.643 612.246 216.433 613.13 216.014C614.013 215.579 614.777 215.003 615.421 214.284L617.824 217.811C617.39 218.395 616.799 218.971 616.05 219.54C615.301 220.094 614.395 220.551 613.332 220.91C612.284 221.27 611.063 221.449 609.671 221.449ZM627.729 201.886V221H621.957V196.697H627.348L627.729 201.886ZM626.786 207.995L625.124 208.018C625.094 206.236 625.266 204.626 625.641 203.188C626.03 201.736 626.584 200.493 627.303 199.46C628.021 198.427 628.882 197.633 629.886 197.079C630.889 196.525 632.012 196.248 633.255 196.248C634.213 196.248 635.082 196.413 635.86 196.742C636.654 197.072 637.335 197.596 637.904 198.314C638.473 199.033 638.915 199.977 639.229 201.145C639.544 202.312 639.701 203.743 639.701 205.435V221H633.929V205.39C633.929 204.297 633.809 203.443 633.569 202.829C633.345 202.2 633.008 201.758 632.559 201.504C632.124 201.234 631.563 201.1 630.874 201.1C630.23 201.1 629.654 201.279 629.145 201.639C628.635 201.983 628.201 202.477 627.842 203.121C627.497 203.75 627.235 204.484 627.056 205.322C626.876 206.146 626.786 207.037 626.786 207.995ZM654.817 196.697V201.077H642.666V196.697H654.817ZM645.721 190.723H651.448V213.902C651.448 214.606 651.523 215.153 651.673 215.542C651.823 215.916 652.04 216.171 652.324 216.306C652.624 216.44 652.983 216.508 653.402 216.508C653.717 216.508 654.016 216.485 654.301 216.44C654.585 216.396 654.795 216.351 654.93 216.306L654.907 220.888C654.473 221.052 653.994 221.187 653.47 221.292C652.946 221.397 652.317 221.449 651.583 221.449C650.415 221.449 649.389 221.225 648.506 220.775C647.637 220.311 646.956 219.562 646.462 218.529C645.968 217.481 645.721 216.111 645.721 214.419V190.723ZM683.545 212.487C683.545 211.843 683.478 211.274 683.343 210.78C683.223 210.271 682.983 209.807 682.624 209.388C682.265 208.968 681.748 208.557 681.074 208.152C680.4 207.733 679.532 207.306 678.469 206.872C677.211 206.363 676.021 205.824 674.897 205.255C673.774 204.671 672.771 203.997 671.888 203.233C671.004 202.47 670.308 201.571 669.799 200.538C669.305 199.505 669.058 198.299 669.058 196.922C669.058 195.574 669.297 194.346 669.776 193.238C670.271 192.115 670.967 191.157 671.865 190.363C672.764 189.555 673.827 188.933 675.055 188.499C676.298 188.065 677.668 187.848 679.165 187.848C681.276 187.848 683.088 188.289 684.601 189.173C686.113 190.056 687.281 191.254 688.104 192.767C688.928 194.279 689.34 195.986 689.34 197.888H683.343C683.343 196.899 683.193 196.023 682.894 195.26C682.609 194.481 682.152 193.875 681.523 193.44C680.895 193.006 680.086 192.789 679.098 192.789C678.169 192.789 677.406 192.976 676.807 193.351C676.208 193.71 675.766 194.204 675.481 194.833C675.197 195.447 675.055 196.151 675.055 196.944C675.055 197.513 675.182 198.03 675.437 198.494C675.706 198.943 676.073 199.355 676.537 199.729C677.001 200.104 677.563 200.463 678.222 200.808C678.896 201.137 679.644 201.459 680.468 201.773C681.98 202.342 683.305 202.971 684.443 203.66C685.581 204.334 686.525 205.098 687.273 205.951C688.037 206.79 688.606 207.741 688.98 208.804C689.355 209.867 689.542 211.08 689.542 212.442C689.542 213.79 689.31 215.018 688.846 216.126C688.382 217.234 687.708 218.185 686.824 218.979C685.941 219.772 684.87 220.386 683.612 220.82C682.369 221.24 680.984 221.449 679.457 221.449C677.99 221.449 676.59 221.24 675.257 220.82C673.939 220.386 672.771 219.735 671.753 218.866C670.735 217.998 669.934 216.905 669.35 215.587C668.766 214.254 668.474 212.689 668.474 210.893H674.471C674.471 211.896 674.583 212.764 674.808 213.498C675.032 214.217 675.369 214.801 675.818 215.25C676.268 215.684 676.807 216.006 677.436 216.216C678.064 216.41 678.776 216.508 679.569 216.508C680.513 216.508 681.276 216.336 681.86 215.991C682.444 215.647 682.871 215.175 683.141 214.576C683.41 213.962 683.545 213.266 683.545 212.487ZM699.852 218.282L704.995 196.697H711.015L703.019 224.661C702.839 225.275 702.592 225.934 702.277 226.638C701.963 227.341 701.551 228.008 701.042 228.637C700.533 229.281 699.896 229.805 699.133 230.209C698.369 230.613 697.456 230.815 696.393 230.815C695.913 230.815 695.494 230.778 695.135 230.703C694.775 230.628 694.379 230.531 693.944 230.411L693.922 225.852C694.057 225.867 694.191 225.874 694.326 225.874C694.461 225.889 694.588 225.896 694.708 225.896C695.427 225.896 696.011 225.792 696.46 225.582C696.924 225.387 697.299 225.073 697.583 224.639C697.868 224.219 698.115 223.665 698.324 222.977L699.852 218.282ZM698.055 196.697L702.053 214.464L702.951 220.933L699.021 221.606L691.855 196.697H698.055ZM725.075 214.509C725.075 214.045 724.925 213.633 724.626 213.273C724.341 212.914 723.885 212.547 723.256 212.173C722.627 211.799 721.796 211.394 720.763 210.96C719.64 210.511 718.644 210.054 717.775 209.59C716.922 209.111 716.196 208.587 715.597 208.018C714.998 207.434 714.549 206.775 714.249 206.041C713.95 205.292 713.8 204.431 713.8 203.458C713.8 202.455 713.987 201.519 714.361 200.65C714.736 199.782 715.275 199.018 715.979 198.359C716.697 197.701 717.566 197.184 718.584 196.81C719.602 196.435 720.748 196.248 722.021 196.248C723.802 196.248 725.33 196.57 726.603 197.214C727.89 197.843 728.871 198.726 729.545 199.864C730.234 201.002 730.578 202.312 730.578 203.795H724.828C724.828 203.226 724.731 202.709 724.536 202.245C724.341 201.781 724.035 201.414 723.615 201.145C723.196 200.86 722.657 200.718 721.998 200.718C721.444 200.718 720.965 200.83 720.561 201.055C720.171 201.279 719.872 201.579 719.662 201.953C719.452 202.312 719.348 202.724 719.348 203.188C719.348 203.548 719.415 203.862 719.55 204.132C719.7 204.401 719.932 204.663 720.246 204.918C720.561 205.158 720.98 205.412 721.504 205.682C722.043 205.936 722.709 206.236 723.503 206.58C725.12 207.194 726.46 207.845 727.523 208.534C728.587 209.208 729.38 210.002 729.904 210.915C730.428 211.813 730.69 212.937 730.69 214.284C730.69 215.347 730.488 216.321 730.084 217.204C729.68 218.088 729.096 218.851 728.332 219.495C727.583 220.124 726.677 220.611 725.614 220.955C724.551 221.285 723.361 221.449 722.043 221.449C720.111 221.449 718.479 221.067 717.146 220.304C715.829 219.54 714.826 218.552 714.137 217.339C713.463 216.126 713.126 214.861 713.126 213.543H718.651C718.681 214.411 718.854 215.1 719.168 215.609C719.497 216.104 719.924 216.448 720.448 216.643C720.972 216.837 721.534 216.935 722.133 216.935C722.792 216.935 723.338 216.845 723.772 216.665C724.207 216.47 724.529 216.193 724.738 215.834C724.963 215.46 725.075 215.018 725.075 214.509ZM745.2 196.697V201.077H733.049V196.697H745.2ZM736.104 190.723H741.831V213.902C741.831 214.606 741.906 215.153 742.056 215.542C742.205 215.916 742.423 216.171 742.707 216.306C743.007 216.44 743.366 216.508 743.785 216.508C744.1 216.508 744.399 216.485 744.684 216.44C744.968 216.396 745.178 216.351 745.312 216.306L745.29 220.888C744.856 221.052 744.377 221.187 743.853 221.292C743.328 221.397 742.7 221.449 741.966 221.449C740.798 221.449 739.772 221.225 738.889 220.775C738.02 220.311 737.339 219.562 736.845 218.529C736.351 217.481 736.104 216.111 736.104 214.419V190.723ZM758.542 221.449C756.925 221.449 755.487 221.202 754.229 220.708C752.987 220.214 751.931 219.495 751.062 218.552C750.194 217.608 749.528 216.448 749.063 215.07C748.614 213.693 748.39 212.113 748.39 210.331V208.152C748.39 206.131 748.622 204.379 749.086 202.896C749.55 201.399 750.194 200.164 751.018 199.19C751.856 198.202 752.859 197.468 754.027 196.989C755.21 196.495 756.513 196.248 757.936 196.248C759.463 196.248 760.796 196.503 761.934 197.012C763.087 197.506 764.037 198.247 764.786 199.235C765.535 200.224 766.089 201.451 766.448 202.919C766.823 204.371 767.01 206.056 767.01 207.973V210.735H750.973V206.535H761.35V205.974C761.32 204.925 761.192 204.035 760.968 203.301C760.743 202.567 760.384 202.013 759.89 201.639C759.41 201.249 758.752 201.055 757.913 201.055C757.254 201.055 756.685 201.189 756.206 201.459C755.727 201.714 755.338 202.118 755.038 202.672C754.754 203.211 754.536 203.937 754.387 204.851C754.237 205.749 754.162 206.85 754.162 208.152V210.331C754.162 211.484 754.267 212.465 754.477 213.273C754.686 214.067 754.993 214.718 755.397 215.228C755.802 215.722 756.296 216.081 756.88 216.306C757.464 216.53 758.145 216.643 758.924 216.643C760.092 216.643 761.118 216.433 762.001 216.014C762.884 215.579 763.648 215.003 764.292 214.284L766.695 217.811C766.261 218.395 765.67 218.971 764.921 219.54C764.172 220.094 763.266 220.551 762.203 220.91C761.155 221.27 759.935 221.449 758.542 221.449ZM776.735 201.684V221H770.963V196.697H776.354L776.735 201.684ZM775.859 207.995L774.085 208.018C774.07 206.326 774.227 204.761 774.557 203.323C774.886 201.886 775.388 200.643 776.062 199.595C776.735 198.532 777.589 197.708 778.622 197.124C779.655 196.54 780.853 196.248 782.216 196.248C783.099 196.248 783.923 196.413 784.687 196.742C785.45 197.057 786.109 197.558 786.663 198.247C787.232 198.921 787.666 199.804 787.966 200.897C788.28 201.976 788.438 203.271 788.438 204.783V221H782.688V205.435C782.688 204.312 782.568 203.443 782.328 202.829C782.104 202.2 781.767 201.758 781.317 201.504C780.883 201.234 780.344 201.1 779.7 201.1C779.026 201.1 778.435 201.279 777.926 201.639C777.432 201.983 777.035 202.477 776.735 203.121C776.436 203.75 776.211 204.484 776.062 205.322C775.912 206.146 775.844 207.037 775.859 207.995ZM787.988 206.984L785.63 207.411C785.6 205.869 785.742 204.424 786.057 203.076C786.386 201.714 786.88 200.523 787.539 199.505C788.198 198.487 789.029 197.693 790.032 197.124C791.035 196.54 792.203 196.248 793.536 196.248C794.539 196.248 795.445 196.413 796.254 196.742C797.077 197.072 797.781 197.603 798.365 198.337C798.949 199.056 799.391 199.999 799.69 201.167C800.005 202.32 800.162 203.728 800.162 205.39V221H794.39V205.39C794.39 204.237 794.27 203.353 794.03 202.739C793.791 202.11 793.454 201.684 793.02 201.459C792.585 201.219 792.054 201.1 791.425 201.1C790.856 201.1 790.354 201.257 789.92 201.571C789.501 201.871 789.141 202.29 788.842 202.829C788.557 203.368 788.34 203.99 788.19 204.693C788.056 205.397 787.988 206.161 787.988 206.984Z" fill="#333333"/>
<path d="M809.976 42.6719V64H806.079V42.6719H809.976ZM815.352 42.6719V45.9531H800.791V42.6719H815.352ZM819.365 42.6719H822.866L827.51 57.9062L832.109 42.6719H835.288L828.96 64H826.03L819.365 42.6719ZM818.003 42.6719H821.299L821.812 56.5V64H818.003V42.6719ZM833.677 42.6719H836.987V64H833.179V56.5L833.677 42.6719Z" fill="#004D95"/>
</svg>
