<?xml version="1.0" encoding="UTF-8"?>
<svg xmlns="http://www.w3.org/2000/svg" id="Bold" viewBox="0 0 28 28">
	<path d="M12,6A3,3,0,0,0,9,9V21a3,3,0,0,0,6,0V9A3,3,0,0,0,12,6Z" stroke="currentColor" stroke-width="2" fill="currentColor" />
	<path d="M21,0a3,3,0,0,0-3,3V21a3,3,0,0,0,6,0V3A3,3,0,0,0,21,0Zm1,21a1,1,0,0,1-2,0V3a1,1,0,0,1,2,0Z" stroke="currentColor" stroke-width="2" fill="currentColor" />
	<path d="M3,12a3,3,0,0,0-3,3v6a3,3,0,0,0,6,0V15A3,3,0,0,0,3,12Z" stroke="currentColor" stroke-width="2" fill="currentColor" />
</svg>
